<svg width="1394" height="370" viewBox="0 0 1394 370" fill="none" xmlns="http://www.w3.org/2000/svg">
<rect width="1394" height="370" fill="#E5E5E5"/>
<g clip-path="url(#clip0_0:1)">
<rect width="1394" height="370" fill="white"/>
<path d="M0.993585 256.533C35.7691 197.333 89.4227 19.7334 307.018 291.067C524.613 562.4 610.061 9.86673 741.215 4.93339C872.368 4.11566e-05 908.137 212.133 1066.12 74C1192.5 -36.5066 1336.7 27.9556 1393.01 74" stroke="black"/>
<path d="M328.5 93.6047C202.906 54.5141 131.5 0.708341 1.5 78.6214V370.296H1391V23.6827C1378.6 6.10234 1263.17 1.04131 1207 0.708351C1068 0.708351 1016.5 56.8229 932 33.6716C844.5 9.69833 741.333 -2.12182 722.5 0.708353C507 46.6571 466.5 136.557 328.5 93.6047Z" fill="#F121AA"/>
</g>
<defs>
<clipPath id="clip0_0:1">
<rect width="1394" height="370" fill="white"/>
</clipPath>
</defs>
</svg>
